<?xml version="1.0" encoding="utf-8"?><!DOCTYPE svg PUBLIC "-//W3C//DTD SVG 1.1//EN" "http://www.w3.org/Graphics/SVG/1.1/DTD/svg11.dtd"><svg width="267" height="172" viewBox="0 0 267 172" xmlns="http://www.w3.org/2000/svg" xmlns:xlink="http://www.w3.org/1999/xlink"><svg width="142.528" height="59.531" viewBox="0 0 142.528 59.531" id="clear-view-escapes" xmlns="http://www.w3.org/2000/svg"><title>clear-view-escapes</title><path fill="#FFF" d="M19.22 27.33v4.75H5.65v5.51H18.1v4.391H5.65v6.301H19.5v4.75H0v-25.7l19.22-.002zM27.08 48.4c.215.395.517.735.88 1 .376.26.797.449 1.24.561.479.121.968.182 1.46.18.38-.004.759-.047 1.13-.131a3.887 3.887 0 0 0 1.08-.398c.338-.182.629-.438.852-.75.224-.334.336-.729.318-1.131a1.904 1.904 0 0 0-1.53-1.729 30.55 30.55 0 0 0-4.3-1.188 24.627 24.627 0 0 1-2.18-.59 7.426 7.426 0 0 1-1.89-.9 4.35 4.35 0 0 1-1.33-1.4 3.987 3.987 0 0 1-.5-2.068 5.584 5.584 0 0 1 .698-3 5.152 5.152 0 0 1 1.852-1.82 8.156 8.156 0 0 1 2.59-.94 16.057 16.057 0 0 1 3-.27c.984-.001 1.966.096 2.93.29a7.77 7.77 0 0 1 2.54 1 5.833 5.833 0 0 1 1.802 1.88c.521.854.827 1.821.89 2.819h-4.89a2.242 2.242 0 0 0-1.12-2 5.134 5.134 0 0 0-2.37-.52 8.94 8.94 0 0 0-.94.049c-.315.03-.627.107-.92.23-.271.117-.51.295-.7.52-.204.262-.307.59-.29.92-.014.432.17.844.5 1.121a3.9 3.9 0 0 0 1.312.699c.605.199 1.225.363 1.85.49l2.182.49c.735.164 1.464.369 2.18.608a7.258 7.258 0 0 1 1.89 1 4.64 4.64 0 0 1 1.33 1.479c.354.67.526 1.423.5 2.181a5.644 5.644 0 0 1-2.66 5.069 7.897 7.897 0 0 1-2.738 1.031c-1.024.204-2.066.31-3.11.31a15.346 15.346 0 0 1-3.17-.32 8.251 8.251 0 0 1-2.72-1.09 6.155 6.155 0 0 1-2-2 6.233 6.233 0 0 1-.852-3.108h4.852c-.018.496.107.99.352 1.426zM50.99 37.811a3.581 3.581 0 0 0-2.05.561 4.43 4.43 0 0 0-1.352 1.439 6.159 6.159 0 0 0-.738 1.938 10.424 10.424 0 0 0-.21 2.062c.003.672.072 1.342.21 2 .131.664.366 1.301.698 1.891a3.994 3.994 0 0 0 1.312 1.389c.6.372 1.295.561 2 .541a3.754 3.754 0 0 0 2.83-1 4.872 4.872 0 0 0 1.24-2.75h4.93a8.435 8.435 0 0 1-2.88 5.65 9.285 9.285 0 0 1-6.08 1.938 10.154 10.154 0 0 1-3.83-.7 8.452 8.452 0 0 1-3-2 8.9 8.9 0 0 1-1.91-3 10.435 10.435 0 0 1-.68-3.83 12.395 12.395 0 0 1 .63-4 9.015 9.015 0 0 1 1.898-3.129 8.512 8.512 0 0 1 3-2.101 10.186 10.186 0 0 1 4-.76 11.543 11.543 0 0 1 3.19.43 8.515 8.515 0 0 1 2.73 1.31 6.784 6.784 0 0 1 2.828 5.311h-5a3.427 3.427 0 0 0-3.645-3.199c-.038 0-.079.005-.121.009zM62.54 40.141a5.932 5.932 0 0 1 .9-3 6.116 6.116 0 0 1 2-1.91 8.82 8.82 0 0 1 2.75-1 15.7 15.7 0 0 1 3.08-.312c.95.002 1.897.069 2.84.201a8.589 8.589 0 0 1 2.63.771 5.164 5.164 0 0 1 1.98 1.59c.539.801.807 1.754.76 2.721v9.68c-.003.805.043 1.609.14 2.41.044.605.214 1.193.5 1.729h-5.19a6.459 6.459 0 0 1-.21-.879 7.946 7.946 0 0 1-.132-.921 6.633 6.633 0 0 1-2.868 1.761 11.533 11.533 0 0 1-3.382.5 9.138 9.138 0 0 1-2.479-.32 5.652 5.652 0 0 1-2-1 4.713 4.713 0 0 1-1.352-1.729 5.885 5.885 0 0 1-.487-2.481 5.41 5.41 0 0 1 .56-2.611 4.672 4.672 0 0 1 1.44-1.639 6.428 6.428 0 0 1 2-.92 21.348 21.348 0 0 1 2.29-.49 39.502 39.502 0 0 1 2.27-.291 13.926 13.926 0 0 0 2-.319c.498-.105.966-.32 1.37-.63a1.38 1.38 0 0 0 .4-1.239 2.711 2.711 0 0 0-.271-1.312 2.004 2.004 0 0 0-.72-.688 2.787 2.787 0 0 0-1-.359 8.583 8.583 0 0 0-1.28-.092 3.903 3.903 0 0 0-2.37.649 2.894 2.894 0 0 0-1 2.16h-5.17l.001-.03zm11.8 3.778a2.284 2.284 0 0 1-.81.451c-.327.11-.661.2-1 .271-.41.069-.81.17-1.2.17-.39 0-.82.108-1.22.18-.383.072-.76.17-1.13.291a3.319 3.319 0 0 0-1 .488 2.29 2.29 0 0 0-.67.771 2.444 2.444 0 0 0-.25 1.189c-.015.397.071.793.25 1.149.156.304.392.558.68.74a2.9 2.9 0 0 0 1 .379c.393.074.791.11 1.19.11a4.516 4.516 0 0 0 2.34-.5 3.365 3.365 0 0 0 1.22-1.211c.255-.437.421-.918.49-1.42.062-.387.103-.776.12-1.17v-1.891l-.01.003zM88.28 34.41v2.4h.07a5.633 5.633 0 0 1 2.37-2.222 7.323 7.323 0 0 1 3.17-.68 8.076 8.076 0 0 1 3.778.83 7.773 7.773 0 0 1 2.63 2.2 9.303 9.303 0 0 1 1.552 3.189c.338 1.238.506 2.516.5 3.801a12.82 12.82 0 0 1-.5 3.6 9.196 9.196 0 0 1-1.53 3.06 7.575 7.575 0 0 1-2.6 2.111 7.72 7.72 0 0 1-3.58.789 7.258 7.258 0 0 1-3.182-.699 6.034 6.034 0 0 1-2.39-2.07h-.04v8.82h-5.11V34.41h4.862zm6.64 14.759a4.079 4.079 0 0 0 1.36-1.358c.363-.578.614-1.22.74-1.892.146-.724.219-1.461.22-2.199a10.364 10.364 0 0 0-.23-2.2 5.835 5.835 0 0 0-.77-1.92 4.338 4.338 0 0 0-1.39-1.369 3.85 3.85 0 0 0-2.08-.42 3.933 3.933 0 0 0-2.11.52 4.223 4.223 0 0 0-1.37 1.352 5.661 5.661 0 0 0-.74 1.908 11.19 11.19 0 0 0-.198 2.221c-.003.739.073 1.478.229 2.199.147.641.405 1.249.76 1.801a4.357 4.357 0 0 0 5.579 1.357zM110.87 48.561a5.243 5.243 0 0 0 6 .34 3.208 3.208 0 0 0 1.37-1.642h4.48a8.543 8.543 0 0 1-3.312 4.791 9.748 9.748 0 0 1-5.4 1.439 10.657 10.657 0 0 1-4-.699 8.263 8.263 0 0 1-3-2 9.03 9.03 0 0 1-1.89-3.09 11.37 11.37 0 0 1-.67-4 10.842 10.842 0 0 1 .68-3.892 8.997 8.997 0 0 1 4.95-5.18 9.619 9.619 0 0 1 3.87-.76 8.812 8.812 0 0 1 4.14.92 8.23 8.23 0 0 1 2.9 2.459 10.134 10.134 0 0 1 1.73 3.561c.338 1.353.46 2.75.358 4.142h-13.46a5.183 5.183 0 0 0 1.254 3.611zm5.78-9.75a3.586 3.586 0 0 0-2.79-1 4.437 4.437 0 0 0-2 .409c-.5.236-.942.578-1.3 1a3.789 3.789 0 0 0-.682 1.3 5.951 5.951 0 0 0-.229 1.221h8.31a5.896 5.896 0 0 0-1.309-2.93zM130.36 48.4c.215.395.516.735.88 1 .376.26.796.449 1.24.561.477.121.968.182 1.46.18.38-.004.759-.047 1.13-.131a3.887 3.887 0 0 0 1.08-.398 2.48 2.48 0 0 0 .81-.721 1.88 1.88 0 0 0 .32-1.131 1.911 1.911 0 0 0-1.56-1.76 30.554 30.554 0 0 0-4.222-1.189 25.426 25.426 0 0 1-2.18-.59 7.393 7.393 0 0 1-1.89-.9 4.347 4.347 0 0 1-1.33-1.399 3.988 3.988 0 0 1-.5-2.069 5.593 5.593 0 0 1 .698-3 5.181 5.181 0 0 1 1.852-1.819 8.156 8.156 0 0 1 2.59-.94 16.142 16.142 0 0 1 3-.27c.983-.002 1.966.096 2.93.289a7.815 7.815 0 0 1 2.54 1 5.883 5.883 0 0 1 1.852 1.82 6.14 6.14 0 0 1 .88 2.86h-4.86a2.24 2.24 0 0 0-1.12-2 5.114 5.114 0 0 0-2.37-.521c-.312 0-.627.017-.938.049a3.116 3.116 0 0 0-.92.23 1.895 1.895 0 0 0-.7.52 1.38 1.38 0 0 0-.29.921c-.015.431.17.844.5 1.12a3.87 3.87 0 0 0 1.311.699 16.37 16.37 0 0 0 1.851.49l2.1.51c.737.166 1.466.369 2.182.609a7.228 7.228 0 0 1 1.89 1c.545.393.999.896 1.33 1.48.354.67.527 1.422.5 2.18a5.652 5.652 0 0 1-2.68 5.041 7.9 7.9 0 0 1-2.722 1.061c-1.022.204-2.064.31-3.108.31a15.339 15.339 0 0 1-3.17-.32 8.313 8.313 0 0 1-2.75-1.08 6.175 6.175 0 0 1-2-2 6.23 6.23 0 0 1-.852-3.108h4.86c-.006.495.125.984.376 1.416zM23.36 6.1a6.408 6.408 0 0 0-.55-1.43 4.013 4.013 0 0 0-.9-1.12 4 4 0 0 0-1.29-.74 5.117 5.117 0 0 0-1.71-.26 4.996 4.996 0 0 0-2.46.58 4.838 4.838 0 0 0-1.729 1.53 6.873 6.873 0 0 0-1 2.19 10.148 10.148 0 0 0 0 5 6.873 6.873 0 0 0 1 2.19 4.842 4.842 0 0 0 1.688 1.54 4.998 4.998 0 0 0 2.46.57 4.458 4.458 0 0 0 1.852-.34 4.145 4.145 0 0 0 1.38-1c.39-.437.694-.942.898-1.49a7.155 7.155 0 0 0 .432-1.83h3.05a8.515 8.515 0 0 1-.69 2.93 7.165 7.165 0 0 1-1.59 2.29 6.997 6.997 0 0 1-2.35 1.49 8.158 8.158 0 0 1-3 .53 8.438 8.438 0 0 1-3.592-.74 7.888 7.888 0 0 1-2.688-2 9.008 9.008 0 0 1-1.69-3 11.064 11.064 0 0 1-.59-3.63 10.996 10.996 0 0 1 .59-3.6 9.008 9.008 0 0 1 1.69-3 8.02 8.02 0 0 1 2.688-2 8.304 8.304 0 0 1 3.65-.76 9.51 9.51 0 0 1 2.812.41 7.309 7.309 0 0 1 2.34 1.2 6.246 6.246 0 0 1 1.66 1.92c.433.798.697 1.676.778 2.58h-3.14V6.1zM29.03.43h2.85v17.85h-2.85V.43zM37.21 12.55c-.001.491.069.98.21 1.45.131.448.35.866.642 1.23.292.358.661.645 1.08.84a3.531 3.531 0 0 0 1.55.31c.72.029 1.43-.171 2.03-.57a3.187 3.187 0 0 0 1.14-1.61h2.7a5.367 5.367 0 0 1-2.102 3.26 5.69 5.69 0 0 1-1.738.85 6.982 6.982 0 0 1-2 .29 6.847 6.847 0 0 1-2.7-.5 5.572 5.572 0 0 1-2-1.4 5.946 5.946 0 0 1-1.3-2.12 8.626 8.626 0 0 1-.36-2.77A7.859 7.859 0 0 1 34.8 9.2a6.678 6.678 0 0 1 1.25-2.18 5.86 5.86 0 0 1 4.562-2 5.798 5.798 0 0 1 2.74.64 6.012 6.012 0 0 1 2 1.69 6.884 6.884 0 0 1 1.17 2.39c.245.915.312 1.869.2 2.81H37.21zm6.65-1.88a4.606 4.606 0 0 0-.29-1.3 3.45 3.45 0 0 0-.65-1.09 3.234 3.234 0 0 0-1-.75 3.001 3.001 0 0 0-1.31-.29 3.405 3.405 0 0 0-1.36.26 3.128 3.128 0 0 0-1.05.73 3.592 3.592 0 0 0-.7 1.09 3.821 3.821 0 0 0-.29 1.35h6.65zM59.72 15.4c-.02.258.028.516.14.75a.578.578 0 0 0 .54.23h.32c.133.015.267.015.398 0v2l-.398.04-.49.11-.5.08h-.43a2.741 2.741 0 0 1-1.448-.35 1.737 1.737 0 0 1-.75-1.229 5.03 5.03 0 0 1-2.092 1.2 8.196 8.196 0 0 1-2.39.38 5.863 5.863 0 0 1-1.68-.24 4.382 4.382 0 0 1-1.41-.7 3.34 3.34 0 0 1-1-1.18c-.25-.524-.37-1.1-.35-1.68a3.84 3.84 0 0 1 .438-2 3.237 3.237 0 0 1 1.15-1.18 5.215 5.215 0 0 1 1.6-.61c.594-.126 1.19-.223 1.79-.29.489-.095.983-.165 1.48-.21a6.802 6.802 0 0 0 1.238-.21c.308-.053.596-.18.842-.37a1.27 1.27 0 0 0 .31-.94 1.458 1.458 0 0 0-.26-.9 1.787 1.787 0 0 0-.65-.54 2.835 2.835 0 0 0-.86-.25 6.761 6.761 0 0 0-.898-.06 3.584 3.584 0 0 0-2 .5 1.997 1.997 0 0 0-.87 1.55h-2.83a4.32 4.32 0 0 1 .6-2.08c.34-.541.798-.996 1.342-1.33a5.434 5.434 0 0 1 1.84-.7c.69-.134 1.395-.201 2.1-.2a8.79 8.79 0 0 1 1.88.2c.581.114 1.14.323 1.65.62a3.6 3.6 0 0 1 1.188 1.16c.325.536.485 1.155.462 1.78L59.72 15.4zm-2.86-3.59a3.457 3.457 0 0 1-1.602.51c-.666.06-1.3.147-1.898.26a6.159 6.159 0 0 0-.87.21 2.613 2.613 0 0 0-.75.38c-.22.165-.395.381-.51.63a2.131 2.131 0 0 0-.19.94c-.011.291.086.575.271.8.182.214.405.388.66.51.269.127.555.215.85.26.277.045.559.069.84.07a4.55 4.55 0 0 0 1-.12 3.422 3.422 0 0 0 1.062-.45c.317-.195.595-.454.81-.76.227-.336.343-.734.33-1.14v-2.1h-.003zM62.78 5.35h2.68v2.46h.05c.099-.362.265-.702.49-1 .252-.341.548-.647.88-.91a4.382 4.382 0 0 1 1.142-.66c.405-.165.841-.25 1.278-.25.23-.013.462-.013.69 0h.39v2.82l-.66-.07a4.775 4.775 0 0 0-.61 0 3.265 3.265 0 0 0-1.36.29 3.141 3.141 0 0 0-1.09.78 4.167 4.167 0 0 0-.75 1.39 6.054 6.054 0 0 0-.27 1.9v6.15h-2.86V5.35zM76.91.43h3.25l4.48 14.13h.08L89.26.43h3.172L86.33 18.28h-3.47L76.91.43zM94.14.43h2.85v2.7h-2.85V.43zm0 4.93h2.85v12.92h-2.85V5.35v.01zM102.31 12.55c-.002.491.068.98.21 1.45.131.448.348.866.64 1.23.292.358.661.645 1.08.84a3.534 3.534 0 0 0 1.55.31 3.416 3.416 0 0 0 2-.54c.541-.402.94-.966 1.142-1.61h2.698a5.36 5.36 0 0 1-2.1 3.26 5.734 5.734 0 0 1-1.74.85 6.972 6.972 0 0 1-2 .29 6.839 6.839 0 0 1-2.7-.5 5.598 5.598 0 0 1-2-1.4 5.926 5.926 0 0 1-1.22-2.15 8.737 8.737 0 0 1-.41-2.77 7.81 7.81 0 0 1 .44-2.61 6.66 6.66 0 0 1 1.25-2.18 5.856 5.856 0 0 1 4.56-2 5.792 5.792 0 0 1 2.74.64 5.992 5.992 0 0 1 2 1.69 6.823 6.823 0 0 1 1.16 2.41c.242.916.307 1.87.188 2.81h-9.5l.012-.02zm6.65-1.88a4.606 4.606 0 0 0-.29-1.3c-.146-.4-.368-.77-.648-1.09a3.245 3.245 0 0 0-1-.75 3.013 3.013 0 0 0-1.3-.28 3.416 3.416 0 0 0-1.36.26 3.109 3.109 0 0 0-1 .73 3.592 3.592 0 0 0-.7 1.09 3.817 3.817 0 0 0-.29 1.35h6.65l-.062-.01zM112.82 5.35h3l2.53 9.65 2.42-9.65h2.95l2.33 9.65 2.672-9.65h2.898l-4 12.93h-2.93l-2.4-9.6-2.37 9.6h-3l-4.1-12.93z"/></svg><svg id="comment" data-name="Layer 1" width="64" height="64" viewBox="0 0 64 64" x="202.528" xmlns="http://www.w3.org/2000/svg"><defs><style>.bcls-1{fill:#2f5572}</style></defs><title>comment</title><path class="bcls-1" d="M.72.08A.67.67 0 0 0 0 .8v46.48a.72.72 0 0 0 .72.72H48l16 16V.72a.67.67 0 0 0-.72-.72H.8z"/></svg><svg id="facebook" data-name="Layer 1" width="21.23" height="42.01" viewBox="0 0 21.23 42.01" x="64" y="59.531" xmlns="http://www.w3.org/2000/svg"><defs><style>.ccls-1{fill:#fff}</style></defs><title>facebook</title><path class="ccls-1" d="M21.23.31V7H17.4a3.55 3.55 0 0 0-2.85.91 4.26 4.26 0 0 0-.74 2.72v4.77H21l-1 7.47h-6.19V42H6.27V22.85H0v-7.47h6.27V9.85q0-4.69 2.55-7.28A9 9 0 0 1 15.63 0a39.57 39.57 0 0 1 5.6.31z"/></svg><svg id="fire" data-name="Layer 1" width="56" height="64" viewBox="0 0 56 64" y="107.531" xmlns="http://www.w3.org/2000/svg"><defs><style>.dcls-1{fill:#d4953d}</style></defs><title>Untitled-2</title><path class="dcls-1" d="M16 0C24 16 0 24 0 40s16 24 16 24C8.16 48.16 32 40 32 24S16 0 16 0zm24 24c8 16-16 24-16 40h24c3.2 0 8-4 8-16 0-16-16-24-16-24z"/></svg><svg id="globe" data-name="Layer 1" width="64" height="64" viewBox="0 0 64 64" x="56" y="107.531" xmlns="http://www.w3.org/2000/svg"><defs><style>.ecls-1{fill:#d4953f}</style></defs><title>globe</title><path class="ecls-1" d="M32 0a32 32 0 1 0 32 32A32 32 0 0 0 32 0zm0 8a23.75 23.75 0 0 1 7.52 1.52c-1.68 1.6-3.6 3-3.28 4.48s5.52 1 5.52 4c0 2.16-3.36 2.8-1 5.28 2.8 2.8-5.12 7.84-5.28 11.52-.24 6.64 6.72 7.76 12.24 7.76 3.36 0 4.24 1.6 4 3.52a24.07 24.07 0 0 1-19.76 10 22.94 22.94 0 0 1-8.48-1.76c1.76-3.52-2.24-10.48-6-12.72-1.84-1.84-5.76-1.12-8-2a23.49 23.49 0 0 1-1.52-6.72 1.42 1.42 0 0 1 1.28-.72c1.52 0 3.6 3 4.72 2.72 1.4-.32-5.96-10.48-2.52-12.48 1.6-1 4.8 3.12 3.76-1.28-1-4.08 2.88-2.24 5.28-3.28 2.08-.88 3.6-3.28 1-4.72a8.55 8.55 0 0 1-1.76-1.52A23.75 23.75 0 0 1 32 8.08V8zm18.48 8.72A26.46 26.46 0 0 1 54 22.48v.24a11.78 11.78 0 0 1-1.76 1.76C50 26.72 49.68 22.8 48.72 22c-1-1-4.8.16-5.28-1-.56-1.48 4-3.4 7.04-4.28z"/></svg><svg id="instagram" data-name="Layer 1" width="42.01" height="42.01" viewBox="0 0 42.01 42.01" x="142.528" y="64" xmlns="http://www.w3.org/2000/svg"><defs><style>.fcls-1{fill:#fff}</style></defs><title>instagram</title><path class="fcls-1" d="M37.25 35.49V17.77h-3.69a11.77 11.77 0 0 1 .57 3.58 12.12 12.12 0 0 1-1.75 6.36 12.76 12.76 0 0 1-4.76 4.59 13.13 13.13 0 0 1-6.56 1.7 12.78 12.78 0 0 1-9.19-3.71 12 12 0 0 1-3.83-9 11.77 11.77 0 0 1 .49-3.56H4.68v17.76a1.63 1.63 0 0 0 1.6 1.67h29.3a1.63 1.63 0 0 0 1.17-.47 1.59 1.59 0 0 0 .5-1.2zm-7.77-14.57A7.75 7.75 0 0 0 27 15.14a8.28 8.28 0 0 0-6-2.4 8.25 8.25 0 0 0-5.91 2.39 7.75 7.75 0 0 0-2.47 5.78 7.75 7.75 0 0 0 2.47 5.79A8.25 8.25 0 0 0 21 29.1a8.28 8.28 0 0 0 6-2.4 7.75 7.75 0 0 0 2.48-5.78zm7.76-9.84V6.56a1.84 1.84 0 0 0-.54-1.31 1.8 1.8 0 0 0-1.31-.56h-4.78a1.8 1.8 0 0 0-1.31.56 1.84 1.84 0 0 0-.54 1.31v4.52A1.87 1.87 0 0 0 30.6 13h4.8a1.87 1.87 0 0 0 1.85-1.89zM42 5.39v31.23A5.41 5.41 0 0 1 36.62 42H5.39a5.19 5.19 0 0 1-3.8-1.59A5.19 5.19 0 0 1 0 36.62V5.39a5.19 5.19 0 0 1 1.59-3.8A5.19 5.19 0 0 1 5.39 0h31.23a5.19 5.19 0 0 1 3.8 1.59A5.19 5.19 0 0 1 42 5.39z"/></svg><svg id="mail" data-name="Layer 1" width="64" height="48" viewBox="0 0 64 48" y="59.531" xmlns="http://www.w3.org/2000/svg"><defs><style>.gcls-1{fill:#2f5572}</style></defs><title>mail</title><path class="gcls-1" d="M0 0v8l32 16L64 8V0H0zm0 16v32h64V16L32 32z"/></svg><svg id="rain" data-name="Layer 1" width="64" height="64" viewBox="0 0 64 64" x="202.528" y="64" xmlns="http://www.w3.org/2000/svg"><defs><style>.hcls-1{fill:#d4953f}</style></defs><title>rain</title><path class="hcls-1" d="M36 0a20.42 20.42 0 0 0-20 16A16 16 0 0 0 0 32a15.4 15.4 0 0 0 4.27 10.72A11.88 11.88 0 0 1 12 40a10.51 10.51 0 0 1 4.47 1A12 12 0 0 1 28 32a12.06 12.06 0 0 1 11.51 9A11.84 11.84 0 0 1 44 40a11.94 11.94 0 0 1 11 7.52A12.07 12.07 0 0 0 64 36c0-5.2-3.36-10.32-8-12v-4A20 20 0 0 0 36 0zm-9.27 40A4 4 0 0 0 24 44v16a4 4 0 1 0 8 0V44a4 4 0 0 0-4.71-4h-.56zm-16 8A4 4 0 0 0 8 52v8a4 4 0 1 0 8 0v-8a4 4 0 0 0-4.71-4h-.54zm32 0A4 4 0 0 0 40 52v8a4 4 0 1 0 8 0v-8a4 4 0 0 0-4.71-4h-.58z" transform="translate(-.04)"/></svg><svg id="star" data-name="Layer 1" width="64" height="64" viewBox="0 0 64 64" x="120" y="107.531" xmlns="http://www.w3.org/2000/svg"><defs><style>.icls-1{fill:#d4953f}</style></defs><title>star</title><path class="icls-1" d="M32 0l-8 24H0l20 16-8 24 20-16 20 16-8-24 20-16H40z"/></svg><svg id="twitter" data-name="Layer 1" width="51.78" height="42.06" viewBox="0 0 51.78 42.06" x="202.528" y="128" xmlns="http://www.w3.org/2000/svg"><defs><style>.jcls-1{fill:#fff}</style></defs><title>twitter</title><path class="jcls-1" d="M51.78 5a22.23 22.23 0 0 1-5.32 5.52v1.38a30.15 30.15 0 0 1-1.25 8.53 30.81 30.81 0 0 1-3.76 8.13 32.1 32.1 0 0 1-6.06 6.92 27 27 0 0 1-8.48 4.8 31 31 0 0 1-10.62 1.8A29.47 29.47 0 0 1 0 37.29a22.71 22.71 0 0 0 2.56.13 20.78 20.78 0 0 0 13.17-4.53 10.63 10.63 0 0 1-9.92-7.36 13.45 13.45 0 0 0 2 .16 11 11 0 0 0 2.79-.36 10.44 10.44 0 0 1-6.09-3.67 10.25 10.25 0 0 1-2.41-6.75v-.13a10.52 10.52 0 0 0 4.8 1.34 10.6 10.6 0 0 1-3.45-3.78 10.34 10.34 0 0 1-1.28-5.07 10.4 10.4 0 0 1 1.45-5.33 30.08 30.08 0 0 0 9.71 7.83A29.57 29.57 0 0 0 25.53 13a11.79 11.79 0 0 1-.26-2.43 10.23 10.23 0 0 1 3-7.48 10.64 10.64 0 0 1 15 0l.21.22A20.81 20.81 0 0 0 50.33.8a10.3 10.3 0 0 1-4.67 5.85A21.14 21.14 0 0 0 51.78 5z"/></svg><svg id="wifi" data-name="Layer 1" width="60" height="64" viewBox="0 0 60 64" x="142.528" xmlns="http://www.w3.org/2000/svg"><defs><style>.kcls-1{fill:#d4953e}</style></defs><title>wifi</title><path class="kcls-1" d="M29.88 0A55.39 55.39 0 0 0 0 8.72l4.22 6.48a47.32 47.32 0 0 1 25.66-7.28 47.31 47.31 0 0 1 25.9 7.28L60 8.72A55.53 55.53 0 0 0 29.88 0zm0 24a31.08 31.08 0 0 0-17 5l4.22 6.72A23.09 23.09 0 0 1 29.8 32a24.17 24.17 0 0 1 13 3.76L47 29a32.37 32.37 0 0 0-17.2-5h.07zm0 24a8 8 0 1 0 8 8 8 8 0 0 0-8-8z"/></svg><svg id="youtube" data-name="Layer 1" width="34.75" height="42" viewBox="0 0 34.75 42" x="85.23" y="59.531" xmlns="http://www.w3.org/2000/svg"><defs><style>.lcls-1{fill:#fff}</style></defs><title>youtube</title><path class="lcls-1" d="M22.13 29.15v5q0 1.57-.91 1.57a1.5 1.5 0 0 1-1.06-.52v-7.11a1.5 1.5 0 0 1 1.06-.54q.91 0 .91 1.6zm7.92 0v1.08h-2.1v-1.06q0-1.59 1.06-1.59t1 1.59zM7.42 24h2.5v-2.14h-7.3v2.2h2.46V37.4h2.34V24zm6.75 13.4h2.09V25.82h-2.09v8.86a1.86 1.86 0 0 1-1.31 1 .48.48 0 0 1-.49-.47 6.52 6.52 0 0 1 0-.82v-8.57h-2.14V35a5.79 5.79 0 0 0 .19 1.71 1.26 1.26 0 0 0 1.36.87 3.43 3.43 0 0 0 2.39-1.43v1.25zm10.05-3.47v-4.6A8.33 8.33 0 0 0 24 27a1.63 1.63 0 0 0-1.67-1.31A2.82 2.82 0 0 0 20.16 27v-5.1h-2.08v15.5h2.09v-1.13a2.91 2.91 0 0 0 2.18 1.31A1.62 1.62 0 0 0 24 36.27a8.61 8.61 0 0 0 .22-2.35zm7.92-.24v-.3H30a11.6 11.6 0 0 1 0 1.43.9.9 0 0 1-.94.85q-1.08 0-1.08-1.61V32h4.19v-2.41a4.65 4.65 0 0 0-.66-2.72 3.2 3.2 0 0 0-5 0 4.52 4.52 0 0 0-.66 2.72v4.05a4.4 4.4 0 0 0 .66 2.72 3 3 0 0 0 2.49 1.2 2.9 2.9 0 0 0 3-2.51 10.31 10.31 0 0 0 .09-1.36zM17.89 12.3V7.38q0-1.61-1-1.61t-1 1.61v4.92q0 1.64 1 1.64t1-1.64zm16.85 17.6a40.6 40.6 0 0 1-.61 8.2 4.45 4.45 0 0 1-1.36 2.32 4.1 4.1 0 0 1-2.39 1.08 125.31 125.31 0 0 1-13 .49 125.31 125.31 0 0 1-13-.49A4.15 4.15 0 0 1 2 40.42 4.28 4.28 0 0 1 .63 38.1 39.76 39.76 0 0 1 0 29.9a40.6 40.6 0 0 1 .61-8.2A4.45 4.45 0 0 1 2 19.37a4.25 4.25 0 0 1 2.41-1.1q4.29-.47 13-.47t13 .47a4.4 4.4 0 0 1 3.75 3.42 39.76 39.76 0 0 1 .58 8.21zM11.35 0h2.39l-2.83 9.35v6.35H8.57V9.35a39.68 39.68 0 0 0-1.43-5Q6.27 2 5.61 0H8.1l1.67 6.16zM20 7.8v4.1a4.59 4.59 0 0 1-.66 2.76 2.88 2.88 0 0 1-2.49 1.19 2.9 2.9 0 0 1-2.46-1.19 4.68 4.68 0 0 1-.66-2.76V7.8a4.59 4.59 0 0 1 .66-2.74 2.9 2.9 0 0 1 2.46-1.19 2.88 2.88 0 0 1 2.49 1.19A4.59 4.59 0 0 1 20 7.8zM27.87 4v11.7h-2.13v-1.27a3.37 3.37 0 0 1-2.41 1.45A1.31 1.31 0 0 1 22 15a6 6 0 0 1-.19-1.76V4h2.13v8.6a6.14 6.14 0 0 0 0 .82.49.49 0 0 0 .47.52 1.87 1.87 0 0 0 1.31-1V4h2.16z"/></svg></svg>