<?xml version="1.0" encoding="utf-8"?>
<!-- Generator: Adobe Illustrator 16.0.0, SVG Export Plug-In . SVG Version: 6.00 Build 0)  -->
<!DOCTYPE svg PUBLIC "-//W3C//DTD SVG 1.1//EN" "http://www.w3.org/Graphics/SVG/1.1/DTD/svg11.dtd">
<svg version="1.1" id="Layer_1" xmlns="http://www.w3.org/2000/svg" xmlns:xlink="http://www.w3.org/1999/xlink" x="0px" y="0px"
	 width="142.528px" height="59.531px" viewBox="0 0 142.528 59.531" enable-background="new 0 0 142.528 59.531"
	 xml:space="preserve">
<title>clear-view-escapes</title>
<path fill="#FFFFFF" d="M19.22,27.33v4.75H5.65v5.51H18.1v4.391H5.65v6.301H19.5v4.75H0v-25.7L19.22,27.33L19.22,27.33z"/>
<path fill="#FFFFFF" d="M27.08,48.4c0.215,0.395,0.517,0.735,0.88,1c0.376,0.26,0.797,0.449,1.24,0.561
	c0.479,0.121,0.968,0.182,1.46,0.18c0.38-0.004,0.759-0.047,1.13-0.131c0.378-0.078,0.742-0.213,1.08-0.398
	c0.338-0.182,0.629-0.438,0.852-0.75c0.224-0.334,0.336-0.729,0.318-1.131c-0.062-0.854-0.688-1.562-1.53-1.729
	c-1.401-0.5-2.839-0.897-4.3-1.188c-0.746-0.166-1.473-0.363-2.18-0.59c-0.67-0.209-1.306-0.513-1.89-0.9
	c-0.543-0.361-0.997-0.84-1.33-1.4c-0.352-0.631-0.523-1.348-0.5-2.068c-0.053-1.047,0.189-2.086,0.698-3
	c0.452-0.756,1.09-1.381,1.852-1.82c0.804-0.458,1.68-0.776,2.59-0.94c0.989-0.184,1.994-0.274,3-0.27
	c0.984-0.001,1.966,0.096,2.93,0.29c0.899,0.181,1.761,0.52,2.54,1c0.734,0.482,1.351,1.126,1.802,1.88
	c0.521,0.854,0.827,1.821,0.89,2.819h-4.89c0.021-0.821-0.408-1.59-1.12-2c-0.737-0.36-1.551-0.539-2.37-0.52
	c-0.314,0-0.628,0.016-0.94,0.049c-0.315,0.03-0.627,0.107-0.92,0.23c-0.271,0.117-0.51,0.295-0.7,0.52
	c-0.204,0.262-0.307,0.59-0.29,0.92c-0.014,0.432,0.17,0.844,0.5,1.121c0.389,0.314,0.833,0.553,1.312,0.699
	c0.605,0.199,1.225,0.363,1.85,0.49l2.182,0.49c0.735,0.164,1.464,0.369,2.18,0.608c0.676,0.238,1.312,0.575,1.89,1
	c0.546,0.392,0.999,0.896,1.33,1.479c0.354,0.67,0.526,1.423,0.5,2.181c0.1,2.048-0.919,3.987-2.66,5.069
	c-0.841,0.513-1.771,0.86-2.738,1.031c-1.024,0.204-2.066,0.31-3.11,0.31c-1.065,0.004-2.127-0.104-3.17-0.32
	c-0.964-0.198-1.885-0.567-2.72-1.09c-0.813-0.502-1.498-1.188-2-2c-0.552-0.942-0.845-2.017-0.852-3.108h4.852
	C26.71,47.47,26.835,47.964,27.08,48.4z"/>
<path fill="#FFFFFF" d="M50.99,37.811c-0.725-0.024-1.438,0.17-2.05,0.561c-0.553,0.372-1.015,0.863-1.352,1.439
	c-0.354,0.601-0.604,1.256-0.738,1.938c-0.139,0.679-0.208,1.369-0.21,2.062c0.003,0.672,0.072,1.342,0.21,2
	c0.131,0.664,0.366,1.301,0.698,1.891c0.318,0.562,0.769,1.039,1.312,1.389c0.6,0.372,1.295,0.561,2,0.541
	c1.041,0.074,2.067-0.287,2.83-1c0.693-0.762,1.129-1.726,1.24-2.75h4.93c-0.188,2.186-1.222,4.213-2.88,5.65
	c-1.734,1.344-3.889,2.031-6.08,1.938c-1.311,0.017-2.61-0.223-3.83-0.7c-1.132-0.443-2.155-1.125-3-2
	c-0.832-0.861-1.481-1.881-1.91-3c-0.465-1.223-0.695-2.521-0.68-3.83c-0.011-1.357,0.202-2.709,0.63-4
	c0.412-1.162,1.059-2.228,1.898-3.129c0.837-0.91,1.859-1.627,3-2.101c1.27-0.521,2.631-0.778,4-0.76
	c1.078-0.007,2.152,0.139,3.19,0.43c0.981,0.271,1.906,0.713,2.73,1.31c1.719,1.233,2.765,3.196,2.828,5.311h-5
	c-0.121-1.891-1.754-3.322-3.645-3.199C51.073,37.802,51.032,37.807,50.99,37.811z"/>
<path fill="#FFFFFF" d="M62.54,40.141c0.026-1.062,0.337-2.101,0.9-3c0.513-0.781,1.196-1.435,2-1.91
	c0.854-0.484,1.784-0.822,2.75-1c1.014-0.205,2.046-0.31,3.08-0.312c0.95,0.002,1.897,0.069,2.84,0.201
	c0.912,0.114,1.799,0.375,2.63,0.771c0.781,0.356,1.462,0.903,1.98,1.59c0.539,0.801,0.807,1.754,0.76,2.721v9.68
	c-0.003,0.805,0.043,1.609,0.14,2.41c0.044,0.605,0.214,1.193,0.5,1.729H74.93c-0.091-0.287-0.16-0.582-0.21-0.879
	c-0.062-0.305-0.106-0.611-0.132-0.921c-0.789,0.823-1.776,1.431-2.868,1.761c-1.097,0.334-2.235,0.502-3.382,0.5
	c-0.837,0.008-1.672-0.101-2.479-0.32c-0.728-0.197-1.406-0.537-2-1c-0.581-0.461-1.043-1.055-1.352-1.729
	C62.167,49.65,62,48.803,62.02,47.952c-0.034-0.904,0.158-1.802,0.56-2.611c0.344-0.651,0.837-1.215,1.44-1.639
	c0.607-0.42,1.285-0.729,2-0.92c0.754-0.205,1.519-0.369,2.29-0.49c0.767-0.121,1.522-0.217,2.27-0.291
	c0.674-0.058,1.342-0.164,2-0.319c0.498-0.105,0.966-0.32,1.37-0.63c0.332-0.319,0.482-0.786,0.4-1.239
	c0.021-0.453-0.072-0.902-0.271-1.312c-0.178-0.287-0.426-0.522-0.72-0.688c-0.309-0.183-0.647-0.305-1-0.359
	c-0.424-0.062-0.853-0.094-1.28-0.092c-0.84-0.045-1.671,0.184-2.37,0.649c-0.628,0.544-0.992,1.33-1,2.16h-5.17L62.54,40.141
	L62.54,40.141z M74.34,43.919c-0.235,0.205-0.512,0.356-0.81,0.451c-0.327,0.11-0.661,0.2-1,0.271c-0.41,0.069-0.81,0.17-1.2,0.17
	c-0.39,0-0.82,0.108-1.22,0.18c-0.383,0.072-0.76,0.17-1.13,0.291c-0.358,0.104-0.696,0.271-1,0.488
	c-0.278,0.203-0.508,0.467-0.67,0.771c-0.182,0.369-0.268,0.777-0.25,1.189c-0.015,0.397,0.071,0.793,0.25,1.149
	c0.156,0.304,0.392,0.558,0.68,0.74c0.307,0.188,0.646,0.315,1,0.379c0.393,0.074,0.791,0.11,1.19,0.11
	c0.811,0.048,1.618-0.127,2.34-0.5c0.505-0.291,0.925-0.709,1.22-1.211c0.255-0.437,0.421-0.918,0.49-1.42
	c0.062-0.387,0.103-0.776,0.12-1.17v-1.891L74.34,43.919L74.34,43.919z"/>
<path fill="#FFFFFF" d="M88.28,34.41v2.4h0.07c0.554-0.957,1.378-1.729,2.37-2.222c0.991-0.461,2.074-0.692,3.17-0.68
	c1.309-0.033,2.604,0.251,3.778,0.83c1.029,0.528,1.928,1.28,2.63,2.2c0.718,0.953,1.243,2.037,1.552,3.189
	c0.338,1.238,0.506,2.516,0.5,3.801c0.005,1.217-0.163,2.43-0.5,3.6c-0.314,1.105-0.833,2.146-1.53,3.06
	c-0.698,0.89-1.587,1.609-2.6,2.111c-1.112,0.547-2.342,0.817-3.58,0.789c-1.101,0.012-2.188-0.229-3.182-0.699
	c-0.967-0.465-1.792-1.181-2.39-2.07h-0.04v8.82h-5.11V34.41H88.28z M94.92,49.169c0.557-0.338,1.021-0.805,1.36-1.358
	c0.363-0.578,0.614-1.22,0.74-1.892c0.146-0.724,0.219-1.461,0.22-2.199c0.002-0.739-0.075-1.477-0.23-2.2
	c-0.141-0.681-0.4-1.33-0.77-1.92c-0.354-0.557-0.828-1.023-1.39-1.369c-0.642-0.332-1.361-0.478-2.08-0.42
	c-0.738-0.027-1.471,0.151-2.11,0.52c-0.555,0.339-1.022,0.801-1.37,1.352c-0.36,0.584-0.611,1.232-0.74,1.908
	c-0.14,0.732-0.206,1.477-0.198,2.221c-0.003,0.739,0.073,1.478,0.229,2.199c0.147,0.641,0.405,1.249,0.76,1.801
	C90.596,49.598,92.982,50.18,94.92,49.169z"/>
<path fill="#FFFFFF" d="M110.87,48.561c1.729,1.362,4.127,1.498,6,0.34c0.631-0.375,1.114-0.953,1.37-1.642h4.48
	c-0.51,1.937-1.681,3.632-3.312,4.791c-1.621,0.996-3.498,1.497-5.4,1.439c-1.364,0.026-2.724-0.212-4-0.699
	c-1.135-0.438-2.159-1.12-3-2c-0.831-0.892-1.476-1.942-1.89-3.09c-0.462-1.283-0.688-2.64-0.67-4
	c-0.014-1.328,0.217-2.646,0.68-3.892c0.862-2.338,2.654-4.213,4.95-5.18c1.225-0.518,2.542-0.777,3.87-0.76
	c1.435-0.035,2.855,0.281,4.14,0.92c1.146,0.582,2.14,1.426,2.9,2.459c0.805,1.062,1.393,2.271,1.73,3.561
	c0.338,1.353,0.46,2.75,0.358,4.142h-13.46C109.559,46.27,110.007,47.561,110.87,48.561z M116.65,38.811
	c-0.743-0.721-1.76-1.084-2.79-1c-0.689-0.021-1.374,0.119-2,0.409c-0.5,0.236-0.942,0.578-1.3,1
	c-0.311,0.386-0.541,0.826-0.682,1.3c-0.119,0.397-0.195,0.807-0.229,1.221h8.31C117.802,40.662,117.348,39.646,116.65,38.811z"/>
<path fill="#FFFFFF" d="M130.36,48.4c0.215,0.395,0.516,0.735,0.88,1c0.376,0.26,0.796,0.449,1.24,0.561
	c0.477,0.121,0.968,0.182,1.46,0.18c0.38-0.004,0.759-0.047,1.13-0.131c0.378-0.078,0.742-0.213,1.08-0.398
	c0.32-0.178,0.597-0.424,0.81-0.721c0.226-0.334,0.336-0.729,0.32-1.131c-0.055-0.875-0.697-1.6-1.56-1.76
	c-1.377-0.496-2.787-0.895-4.222-1.189c-0.74-0.166-1.467-0.362-2.18-0.59c-0.67-0.209-1.306-0.512-1.89-0.9
	c-0.543-0.36-0.997-0.84-1.33-1.399c-0.352-0.631-0.523-1.348-0.5-2.069c-0.053-1.045,0.189-2.084,0.698-3
	c0.453-0.754,1.09-1.379,1.852-1.819c0.804-0.458,1.68-0.776,2.59-0.94c0.989-0.184,1.994-0.273,3-0.27
	c0.983-0.002,1.966,0.096,2.93,0.289c0.899,0.182,1.761,0.521,2.54,1c0.746,0.461,1.378,1.084,1.852,1.82
	c0.524,0.866,0.828,1.85,0.88,2.86h-4.86c0.022-0.821-0.408-1.59-1.12-2c-0.735-0.36-1.55-0.541-2.37-0.521
	c-0.312,0-0.627,0.017-0.938,0.049c-0.316,0.029-0.627,0.107-0.92,0.23c-0.271,0.117-0.511,0.295-0.7,0.52
	c-0.204,0.263-0.308,0.589-0.29,0.921c-0.015,0.431,0.17,0.844,0.5,1.12c0.388,0.314,0.832,0.554,1.311,0.699
	c0.606,0.199,1.225,0.363,1.851,0.49l2.1,0.51c0.737,0.166,1.466,0.369,2.182,0.609c0.676,0.238,1.312,0.574,1.89,1
	c0.545,0.393,0.999,0.896,1.33,1.48c0.354,0.67,0.527,1.422,0.5,2.18c0.083,2.041-0.941,3.969-2.68,5.041
	c-0.833,0.52-1.756,0.879-2.722,1.061c-1.022,0.204-2.064,0.31-3.108,0.31c-1.065,0.004-2.128-0.104-3.17-0.32
	c-0.975-0.192-1.905-0.56-2.75-1.08c-0.812-0.502-1.497-1.188-2-2c-0.552-0.942-0.845-2.016-0.852-3.108h4.86
	C129.978,47.479,130.109,47.968,130.36,48.4z"/>
<path fill="#FFFFFF" d="M23.36,6.1c-0.125-0.497-0.311-0.978-0.55-1.43c-0.23-0.424-0.535-0.804-0.9-1.12
	c-0.38-0.325-0.817-0.576-1.29-0.74c-0.551-0.183-1.129-0.271-1.71-0.26c-0.855-0.021-1.703,0.179-2.46,0.58
	c-0.691,0.363-1.285,0.888-1.729,1.53c-0.459,0.666-0.799,1.407-1,2.19c-0.417,1.641-0.417,3.359,0,5
	c0.201,0.783,0.541,1.524,1,2.19c0.432,0.641,1.011,1.169,1.688,1.54c0.758,0.397,1.604,0.594,2.46,0.57
	c0.634,0.02,1.265-0.096,1.852-0.34c0.523-0.233,0.993-0.574,1.38-1c0.39-0.437,0.694-0.942,0.898-1.49
	c0.225-0.588,0.368-1.204,0.432-1.83h3.05c-0.055,1.01-0.287,2.002-0.69,2.93c-0.375,0.86-0.915,1.638-1.59,2.29
	c-0.676,0.649-1.475,1.156-2.35,1.49c-0.958,0.364-1.977,0.543-3,0.53c-1.236,0.02-2.463-0.233-3.592-0.74
	c-1.028-0.466-1.945-1.148-2.688-2c-0.751-0.882-1.325-1.901-1.69-3c-0.397-1.168-0.598-2.396-0.59-3.63
	c-0.005-1.224,0.194-2.441,0.59-3.6c0.365-1.099,0.939-2.118,1.69-3c0.745-0.849,1.662-1.53,2.688-2
	c1.145-0.527,2.393-0.787,3.65-0.76c0.952-0.005,1.899,0.133,2.812,0.41c0.846,0.255,1.639,0.662,2.34,1.2
	c0.679,0.52,1.244,1.173,1.66,1.92c0.433,0.798,0.697,1.676,0.778,2.58h-3.14V6.1z"/>
<path fill="#FFFFFF" d="M29.03,0.43h2.85v17.85h-2.85V0.43z"/>
<path fill="#FFFFFF" d="M37.21,12.55c-0.001,0.491,0.069,0.98,0.21,1.45c0.131,0.448,0.35,0.866,0.642,1.23
	c0.292,0.358,0.661,0.645,1.08,0.84c0.485,0.219,1.017,0.325,1.55,0.31c0.72,0.029,1.43-0.171,2.03-0.57
	c0.541-0.402,0.939-0.966,1.14-1.61h2.7c-0.27,1.311-1.019,2.473-2.102,3.26c-0.526,0.38-1.114,0.668-1.738,0.85
	c-0.649,0.193-1.323,0.291-2,0.29c-0.926,0.017-1.845-0.153-2.7-0.5c-0.763-0.313-1.445-0.792-2-1.4
	c-0.578-0.607-1.021-1.33-1.3-2.12c-0.27-0.898-0.391-1.833-0.36-2.77c-0.003-0.889,0.146-1.771,0.438-2.61
	c0.275-0.799,0.699-1.539,1.25-2.18c1.147-1.312,2.818-2.044,4.562-2c0.952-0.015,1.893,0.205,2.74,0.64
	c0.781,0.409,1.466,0.986,2,1.69c0.542,0.712,0.938,1.524,1.17,2.39c0.245,0.915,0.312,1.869,0.2,2.81h-9.5H37.21z M43.86,10.67
	c-0.033-0.445-0.131-0.883-0.29-1.3c-0.147-0.4-0.368-0.77-0.65-1.09c-0.28-0.312-0.621-0.567-1-0.75
	c-0.408-0.194-0.855-0.293-1.31-0.29c-0.467-0.007-0.93,0.081-1.36,0.26c-0.396,0.168-0.754,0.417-1.05,0.73
	c-0.298,0.318-0.534,0.687-0.7,1.09c-0.179,0.429-0.275,0.886-0.29,1.35H43.86z"/>
<path fill="#FFFFFF" d="M59.72,15.4c-0.02,0.258,0.028,0.516,0.14,0.75c0.125,0.169,0.331,0.257,0.54,0.23h0.32
	c0.133,0.015,0.267,0.015,0.398,0v2l-0.398,0.04l-0.49,0.11l-0.5,0.08H59.3c-0.506,0.019-1.008-0.102-1.448-0.35
	c-0.416-0.282-0.689-0.729-0.75-1.229c-0.589,0.563-1.308,0.976-2.092,1.2c-0.772,0.244-1.577,0.372-2.39,0.38
	c-0.568,0.002-1.135-0.079-1.68-0.24c-0.509-0.146-0.986-0.384-1.41-0.7c-0.421-0.31-0.764-0.714-1-1.18
	c-0.25-0.524-0.37-1.1-0.35-1.68c-0.037-0.694,0.113-1.385,0.438-2c0.275-0.486,0.672-0.893,1.15-1.18
	c0.496-0.29,1.036-0.496,1.6-0.61c0.594-0.126,1.19-0.223,1.79-0.29c0.489-0.095,0.983-0.165,1.48-0.21
	c0.419-0.032,0.834-0.102,1.238-0.21c0.308-0.053,0.596-0.18,0.842-0.37c0.226-0.258,0.338-0.598,0.31-0.94
	c0.015-0.32-0.077-0.637-0.26-0.9c-0.17-0.23-0.395-0.415-0.65-0.54c-0.271-0.128-0.562-0.213-0.86-0.25
	c-0.298-0.04-0.599-0.06-0.898-0.06c-0.701-0.033-1.396,0.141-2,0.5c-0.518,0.353-0.838,0.926-0.87,1.55h-2.83
	c0.02-0.733,0.227-1.449,0.6-2.08c0.34-0.541,0.798-0.996,1.342-1.33c0.564-0.343,1.188-0.58,1.84-0.7
	c0.69-0.134,1.395-0.201,2.1-0.2c0.632-0.001,1.264,0.066,1.88,0.2c0.581,0.114,1.14,0.323,1.65,0.62
	c0.48,0.289,0.889,0.686,1.188,1.16c0.325,0.536,0.485,1.155,0.462,1.78L59.72,15.4L59.72,15.4z M56.86,11.81
	c-0.483,0.299-1.033,0.474-1.602,0.51c-0.666,0.06-1.3,0.147-1.898,0.26c-0.295,0.049-0.586,0.119-0.87,0.21
	c-0.269,0.085-0.522,0.214-0.75,0.38c-0.22,0.165-0.395,0.381-0.51,0.63c-0.134,0.295-0.199,0.617-0.19,0.94
	c-0.011,0.291,0.086,0.575,0.271,0.8c0.182,0.214,0.405,0.388,0.66,0.51c0.269,0.127,0.555,0.215,0.85,0.26
	c0.277,0.045,0.559,0.069,0.84,0.07c0.337-0.003,0.672-0.043,1-0.12c0.376-0.088,0.735-0.241,1.062-0.45
	c0.317-0.195,0.595-0.454,0.81-0.76c0.227-0.336,0.343-0.734,0.33-1.14v-2.1H56.86z"/>
<path fill="#FFFFFF" d="M62.78,5.35h2.68v2.46h0.05c0.099-0.362,0.265-0.702,0.49-1c0.252-0.341,0.548-0.647,0.88-0.91
	c0.346-0.276,0.729-0.499,1.142-0.66c0.405-0.165,0.841-0.25,1.278-0.25c0.23-0.013,0.462-0.013,0.69,0h0.39v2.82L69.72,7.74
	c-0.203-0.013-0.407-0.013-0.61,0c-0.469-0.002-0.934,0.097-1.36,0.29c-0.415,0.178-0.787,0.445-1.09,0.78
	c-0.336,0.411-0.591,0.883-0.75,1.39c-0.19,0.615-0.282,1.256-0.27,1.9v6.15h-2.86V5.35z"/>
<path fill="#FFFFFF" d="M76.91,0.43h3.25l4.48,14.13h0.08L89.26,0.43h3.172L86.33,18.28h-3.47L76.91,0.43z"/>
<path fill="#FFFFFF" d="M94.14,0.43h2.85v2.7h-2.85V0.43z M94.14,5.36h2.85v12.92h-2.85V5.35V5.36z"/>
<path fill="#FFFFFF" d="M102.31,12.55c-0.002,0.491,0.068,0.98,0.21,1.45c0.131,0.448,0.348,0.866,0.64,1.23
	c0.292,0.358,0.661,0.645,1.08,0.84c0.486,0.219,1.017,0.325,1.55,0.31c0.707,0.031,1.405-0.157,2-0.54
	c0.541-0.402,0.94-0.966,1.142-1.61h2.698c-0.269,1.311-1.018,2.474-2.1,3.26c-0.527,0.38-1.116,0.667-1.74,0.85
	c-0.648,0.193-1.322,0.291-2,0.29c-0.925,0.018-1.843-0.153-2.7-0.5c-0.762-0.313-1.443-0.792-2-1.4
	c-0.553-0.623-0.969-1.355-1.22-2.15c-0.285-0.896-0.423-1.831-0.41-2.77c-0.003-0.889,0.146-1.771,0.44-2.61
	c0.274-0.799,0.699-1.539,1.25-2.18c1.146-1.312,2.817-2.044,4.56-2c0.952-0.015,1.895,0.205,2.74,0.64
	c0.783,0.409,1.466,0.986,2,1.69c0.541,0.719,0.937,1.538,1.16,2.41c0.242,0.916,0.307,1.87,0.188,2.81h-9.5L102.31,12.55z
	 M108.96,10.67c-0.033-0.445-0.131-0.883-0.29-1.3c-0.146-0.4-0.368-0.77-0.648-1.09c-0.281-0.312-0.621-0.567-1-0.75
	c-0.407-0.189-0.853-0.285-1.3-0.28c-0.468-0.007-0.931,0.082-1.36,0.26c-0.379,0.174-0.719,0.422-1,0.73
	c-0.298,0.318-0.534,0.687-0.7,1.09c-0.178,0.428-0.276,0.886-0.29,1.35h6.65L108.96,10.67z"/>
<path fill="#FFFFFF" d="M112.82,5.35h3l2.53,9.65l0,0l2.42-9.65h2.95L126.05,15l0,0l2.672-9.65h2.898l-4,12.93h-2.93l-2.4-9.6l0,0
	l-2.37,9.6h-3L112.82,5.35z"/>
</svg>
